<mxfile host="app.diagrams.net" modified="2022-12-30T00:46:08.300Z" agent="5.0 (Windows NT 10.0; Win64; x64) AppleWebKit/537.36 (KHTML, like Gecko) Chrome/108.0.0.0 Safari/537.36" version="20.7.4" etag="aHO-Cjj9ypcceAk1X7p6" type="github">
  <diagram id="Ma-EzOR4fUV3CaSjNxAY" name="Halaman-1">
    <mxGraphModel dx="1032" dy="521" grid="1" gridSize="10" guides="1" tooltips="1" connect="1" arrows="1" fold="1" page="1" pageScale="1" pageWidth="827" pageHeight="1169" math="0" shadow="0">
      <root>
        <mxCell id="0" />
        <mxCell id="1" parent="0" />
        <mxCell id="V9o93pPGZ9tHAFPN-6RI-3" value="" style="group" vertex="1" connectable="0" parent="1">
          <mxGeometry x="170" y="140" width="120" height="80" as="geometry" />
        </mxCell>
        <mxCell id="V9o93pPGZ9tHAFPN-6RI-1" value="" style="rhombus;whiteSpace=wrap;html=1;" vertex="1" parent="V9o93pPGZ9tHAFPN-6RI-3">
          <mxGeometry x="30" width="80" height="80" as="geometry" />
        </mxCell>
        <mxCell id="V9o93pPGZ9tHAFPN-6RI-2" value="" style="shape=process;whiteSpace=wrap;html=1;backgroundOutline=1;" vertex="1" parent="V9o93pPGZ9tHAFPN-6RI-3">
          <mxGeometry y="20" width="120" height="60" as="geometry" />
        </mxCell>
      </root>
    </mxGraphModel>
  </diagram>
</mxfile>
